# xmcd
#
# Track frame offsets:
#	150
#	13352
#	22318
#	32071
#	41071
#	57196
#	71671
#	85194
#	104243
#	115633
#	132248
#	153851
#	172247
#	193031
#	211114
#	221120
#	233276
#
# Disc length: 3298 seconds
#
# Revision: 0
# Processed by: cddbd v1.5.2PL0 Copyright (c) Steve Scherf et al.
# Submitted via: audiograbber 1.83.01
#
DISCID=f50ce011
DTITLE=Novye pesni pridumala zhizny cd 2 - Novye pesni pridumala zhizny cd 2
DYEAR=2012
DGENRE=Country
TTITLE0=01 Ne poy garmony, stradaniya
TTITLE1=02 Solovushka
TTITLE2=03 Zima-Belyanochka
TTITLE3=04 Ne dolzhna byt na Zemle lyubovy naprasnoyu
TTITLE4=05 Snova akaciya, snova smorodina
TTITLE5=06 Leto - eto chudo
TTITLE6=07 Vozvraschaysya
TTITLE7=08 Kray Zemli
TTITLE8=09 Okonchen nash roman
TTITLE9=10 Stepy
TTITLE10=11 Vse puti
TTITLE11=12 Dozhdi
TTITLE12=13 Imya svyatogo ognya
TTITLE13=14 Dobraya lyubovy
TTITLE14=15 Pesenka pro lyubovy
TTITLE15=16 Rabota pozharnyh
TTITLE16=17 Ah, eti gornovskie dali
EXTD=
EXTT0=
EXTT1=
EXTT2=
EXTT3=
EXTT4=
EXTT5=
EXTT6=
EXTT7=
EXTT8=
EXTT9=
EXTT10=
EXTT11=
EXTT12=
EXTT13=
EXTT14=
EXTT15=
EXTT16=
PLAYORDER=
